<svg id="karatekick" xmlns="http://www.w3.org/2000/svg" width="346.5" height="393.1" viewBox="0 0 346.5 393.1">
  <path id="rightleg" d="M454.83,387s-22.9,189.209-4.165,192.34c9.043,1.507,32.391,4.368,44.89,1.8,9.9-2.033,9.537-9.409,9.24-10.127-.643-1.562-6.427,1.285-11.062,2.109-10.706,1.894-28.737,5.336-34.626-16.4C444.607,503.182,454.83,387,454.83,387Z" transform="translate(-389.095 -189.07)" fill="#1b535e"/>
  <path id="leftleg" d="M459.772,535.663S476.9,435.431,534.49,428.143a600.49,600.49,0,0,0,86.016-18.223c41.759-12.215,77.27-26.971,77.27-26.971s10.66-7.017,14.214-11.3,2.824-2.287,0-5.832-2.916-5.923-11.3-8.382-22.232-1.457-22.232-1.457,51.019,7.286-26.969,40.1c-10.216,4.3-36.883,11.223-52.849,13.85-13.148,2.166-25.517,2.653-34.26,5.1-52.94,14.832-64.147,17.86-64.147,17.86a54.334,54.334,0,0,0-17.859,12.391c-8.473,8.839-9.658,9.834-15.307,32.439S459.772,535.663,459.772,535.663Z" transform="translate(-367.889 -229.255)" fill="#1b535e"/>
  <path id="leftthigh" d="M488.153,374.788h0l43.017-8.595,30.418-1.724s-17.231,4.215-34.292,6.9c-19.012,2.994-38.566,4.478-40.33,3.431" transform="translate(-332.889 -218.069)" fill="#1b535e"/>
  <path id="back" d="M477.331,426.741a137.236,137.236,0,0,0-4.588-28.613c-2.909-9.263-2.555-8.368-13.372-21.352a415.41,415.41,0,0,0-29.9-30.585l47.856,80.55" transform="translate(-406.882 -241.593)" fill="#1b535e"/>
  <path id="rightshoulder" d="M448.06,395.851s-61.6-10.934,18.953-62.326c23.117-14.749-20.636,5.827-22.962,5.466-1.345-.414-25.466,18.171-24.421,30.251.178,2.077,1.83,10.571,1.83,10.571s3.467,9.663,5.468,11.664c8.691,8.714,21.139,4.373,21.139,4.373" transform="translate(-419.597 -264.756)" fill="#1b535e"/>
  <path id="head" d="M445.223,351.039s16.467,22.507,29.377,20.375,22.269-28.9,22.269-28.9,5.686-28.43-17.532-36.009-34.116,27.008-34.116,27.008.229-17.887,9.951-27.008,27.008-5.212,27.008-5.212,10.571,2.934,16.009,10.989,4.961,24.156,4.961,24.156a37.658,37.658,0,0,1-6.289,22.214c-.192.265-4.286,8.615-10.749,12.769s-9.411,4.492-15.094,3.84A34.492,34.492,0,0,1,457,369.648C447.846,363.295,445.223,351.039,445.223,351.039Z" transform="translate(-386.617 -300.456)" fill="#1b535e"/>
  <path id="leftshoulder" d="M495.831,321.888a60.231,60.231,0,0,0-24.712,12.684s80.076-15.636,90.025-5.212l.021.021c1.013,1.059-6.733-4.16-14.671-6.2a75.986,75.986,0,0,0-17.079-1.962C516.967,321.09,510.12,318.718,495.831,321.888Z" transform="translate(-353.285 -274.986)" fill="#1b535e"/>
  <path id="leftfist" d="M515.489,328s1.05-1.869,5.686-3.316c3.792-1.194,11.412-1.891,14.687,0,5.717,3.3,4.016,14.376,3.849,14.774-2.356,5.686-6.449,7.963-13.265,7.963s-13.6-5.208-13.6-5.208a53.65,53.65,0,0,0,14.93-1.6,29.547,29.547,0,0,0,5.972-3.483c2.516-2.838-.352-7.415-5.972-9.137A32.344,32.344,0,0,0,515.489,328Z" transform="translate(-299.585 -270.782)" fill="#1b535e"/>
  <path id="leftbicep" d="M477.334,349.44s.229-.416,1.112-1.7A33.335,33.335,0,0,1,493.917,335.7c11.135-4.028,27.954-2.37,27.954-2.37s-12.023,2.724-24.014,6.632c-7.691,2.5-15.28,6.07-19.408,7.776" transform="translate(-345.286 -258.581)" fill="#1b535e"/>
  <path id="belthang" d="M487,384.442l1.326,28.069,2.655,26.678,8.627-.663L496.6,408l-.663-17.585,12.609,24.055,1.162,6.969L514.355,444l4.977-1.493,1.327-.663-12.121-41.807-8.958-24.055-9.953-8.794-15.6,11.447Z" transform="translate(-349.538 -214.568)" fill="#1b535e"/>
  <path id="belt" d="M454.054,403.556l3.019,3.236V412.4l52.408-26.742,15.529-9.921-10.136-8.627s-.755,2.534-15.959,11.646S454.054,403.556,454.054,403.556Z" transform="translate(-375.248 -214.67)" fill="#1b535e"/>
</svg>
