<svg id="karatekick" xmlns="http://www.w3.org/2000/svg" width="394" height="446.988" viewBox="0 0 394 446.988">
  <path id="rightleg" d="M500.231,387s26.042,215.147,4.736,218.707c-10.283,1.714-36.832,4.967-51.044,2.047-11.255-2.312-10.844-10.7-10.506-11.515.731-1.776,7.308,1.462,12.579,2.4,12.173,2.153,32.676,6.067,39.372-18.649C511.856,519.108,500.231,387,500.231,387Z" transform="translate(-180.978 -161.937)" fill="#fff"/>
  <path id="leftleg" d="M749.293,560.323s-19.478-113.972-84.96-122.26a682.808,682.808,0,0,1-97.807-20.721c-47.484-13.889-87.862-30.668-87.862-30.668s-12.121-7.979-16.163-12.847-3.212-2.6,0-6.631,3.316-6.735,12.847-9.531,25.28-1.657,25.28-1.657-58.013,8.285,30.666,45.6c11.617,4.886,41.939,12.761,60.094,15.749,14.951,2.463,29.015,3.017,38.956,5.8,60.2,16.865,72.941,20.308,72.941,20.308a61.783,61.783,0,0,1,20.308,14.09c9.635,10.051,10.982,11.182,17.406,36.886S749.293,560.323,749.293,560.323Z" transform="translate(-459.772 -211.91)" fill="#fff"/>
  <path id="leftthigh" d="M570.467,376.2h0l-48.914-9.773-34.587-1.961s19.593,4.793,38.993,7.849c21.618,3.4,43.853,5.092,45.858,3.9" transform="translate(-353.015 -197.999)" fill="#fff"/>
  <path id="back" d="M429.475,437.783a156.053,156.053,0,0,1,5.217-32.535c3.308-10.532,2.9-9.516,15.205-24.279a472.374,472.374,0,0,1,33.994-34.777l-54.417,91.592" transform="translate(-115.581 -227.254)" fill="#fff"/>
  <path id="rightshoulder" d="M448.789,405.126s70.041-12.433-21.551-70.87c-26.286-16.771,23.465,6.626,26.11,6.215,1.529-.471,28.957,20.661,27.769,34.4-.2,2.361-2.08,12.02-2.08,12.02s-3.942,10.987-6.218,13.263c-9.882,9.908-24.037,4.972-24.037,4.972" transform="translate(-87.154 -256.059)" fill="#fff"/>
  <path id="head" d="M511.115,357.973s-18.724,25.592-33.4,23.168-25.322-32.866-25.322-32.866-6.465-32.328,19.936-40.946,38.793,30.71,38.793,30.71-.26-20.339-11.315-30.71-30.71-5.927-30.71-5.927-12.02,3.337-18.2,12.5-5.641,27.467-5.641,27.467a42.82,42.82,0,0,0,7.152,25.259c.219.3,4.873,9.8,12.223,14.519s10.7,5.107,17.164,4.366a39.22,39.22,0,0,0,15.939-6.376C508.132,371.909,511.115,357.973,511.115,357.973Z" transform="translate(-183.756 -300.456)" fill="#fff"/>
  <path id="leftshoulder" d="M545.511,322.113a68.488,68.488,0,0,1,28.1,14.423s-91.054-17.78-102.366-5.927l-.023.023c-1.152,1.2,7.656-4.73,16.683-7.05a86.4,86.4,0,0,1,19.421-2.231C521.477,321.206,529.263,318.509,545.511,322.113Z" transform="translate(-313.598 -268.781)" fill="#fff"/>
  <path id="leftfist" d="M540.8,328.615s-1.194-2.125-6.465-3.771c-4.312-1.358-12.977-2.151-16.7,0-6.5,3.758-4.566,16.347-4.377,16.8,2.679,6.465,7.333,9.055,15.083,9.055s15.468-5.922,15.468-5.922a61.006,61.006,0,0,1-16.977-1.82,33.6,33.6,0,0,1-6.79-3.961c-2.86-3.227.4-8.431,6.79-10.389A36.777,36.777,0,0,1,540.8,328.615Z" transform="translate(-392.302 -263.554)" fill="#fff"/>
  <path id="leftbicep" d="M527.977,351.695s-.26-.473-1.264-1.937a37.9,37.9,0,0,0-17.593-13.687c-12.662-4.58-31.786-2.694-31.786-2.694s13.671,3.1,27.306,7.542c8.746,2.845,17.374,6.9,22.068,8.842" transform="translate(-284.127 -248.38)" fill="#fff"/>
  <path id="belthang" d="M512.3,386.808,510.8,418.724l-3.019,30.336-9.809-.754,3.415-34.71.754-20L487.8,420.953l-1.321,7.924L481.2,454.531l-5.659-1.7-1.508-.754,13.783-47.538L498,377.188l11.318-10L527.05,380.2Z" transform="translate(-274.608 -193.646)" fill="#fff"/>
  <path id="belt" d="M534.736,408.553l-3.433,3.68v6.377L471.712,388.2l-17.658-11.281,11.526-9.809s.858,2.881,18.147,13.242S534.736,408.553,534.736,408.553Z" transform="translate(-230.345 -193.772)" fill="#fff"/>
</svg>
