<svg xmlns="http://www.w3.org/2000/svg" width="508.481" height="386.135" viewBox="0 0 508.481 386.135">
  <g id="pose1" transform="translate(0)">
    <path id="Path_1" data-name="Path 1" d="M741.96,698.236c5.041-.673-19.148-31.973-14.188-37.121,2.9-3.013,8.211,2.8,16.348,5.033,5.78,1.585,12.169-3.884,15.182-1.24,4.048,3.547,11.914,7.62,7.176,11.191-3.555,2.677.041-1.724-8.006-6.076-5.477-2.964-25.478-6.142-30.651-7.423-1.535,3.022,26.562,43.214,20.642,44.765" transform="translate(-259.469 -364.579)" fill="#fff"/>
    <path id="Path_2" data-name="Path 2" d="M919.439,699.306c-.189.961-1.166-8.991-7.053-12.308-15.625-8.794-48.214-28.615-81.106-37.909-22.481-6.355-31.956-31.316-51.827-37.318-22.818-6.889-27.055-17.292-31.948-22.292-10.247-10.461-.156-3.235,4.2.542,2.964,2.57,6.692,6.281,32.3,14.82,18.942,6.314,28.82,31.242,50.135,38.624,23.787,8.236,59.364,32.326,76.747,51.621,2.833,3.145,2.981,11.438-3.293,12.218-10.2,1.264-19.944-7.349-7.275-4.729,24.706-.23,17.481-10.888,17.5-11.479" transform="translate(-424.064 -350.943)" fill="#fff"/>
    <path id="Path_3" data-name="Path 3" d="M966.422,721.582c8.35-.641,14.9,4.015,25.183,3.8s13.269-11.774,29.542-11.347,14.985,7.71,16.914,12.2-17.941-9.779-34.214,1.782-36.341-12.333-44.33-7.184c-7.086,4.565-2.143,15.527-6.626,18.277s-146.456,22.875-159.938,9.812-5.666-29.329-2.882-39.6c1.33-4.91,16.183-13.761,23.672-20.814,8.178-7.7,9.763-10.9,13.507-13.4,6.938-4.639-25.552,30.856-27.046,36.037-.985,3.424-16.027,27.293-.4,29.863s143.213-7.275,151.128-8.137" transform="translate(-577.485 -367.16)" fill="#fff"/>
    <path id="Path_4" data-name="Path 4" d="M1099.138,550.21c-1.724-5.411-8.17-2.537-15.371-9.237-7.595-7.07-13.827-10.124-32.047-29.074-13.047-19.558-3.416-55.152-9.984-76.812-6.79-22.383-56.54-24.567-51.58-44.379s26.34-20.543,23.122-48.518c-1.084-9.385-12.965-29.033-28.532-33.894-7.628-2.381-21.209-9.36-32.942-5.3-12.218,4.237-22.432,19.7-21.8,25.6.87,8.219-4.639-13.2,1.733-14.755,4.606-1.125,12.308-10.592,20.6-12.563,13.556-3.227,28.7,1.24,34.453,3.284,10.288,3.662,28.5,15.584,29.493,35.643s-21.414,36.144-20.921,50.751-14.139,1.4,5.173,9.081c11.823,4.7,39.757,18.7,44.6,29.9,5.977,13.8,3.3,50.923,11,73.339C1064.349,527.187,1100.993,556.039,1099.138,550.21Z" transform="translate(-756.189 -300.147)" fill="#fff"/>
    <path id="Path_5" data-name="Path 5" d="M1287.55,418.071a331.074,331.074,0,0,0-57.271-12.48,197.543,197.543,0,0,1-52.951-14.172c-38.87-16.693-57.591-29.074-75.925-35.1-18.786-6.175-37.417-27.818-61.171-40.422-16.43-8.72-22.514-9.475-22.514-9.475s-3.1.312,19.14,12.669c22.383,10.346,64.529,31.349,81.7,38.533,5.444,2.283,60.645,33.935,73.084,39.428,8.515,3.761,30.528,3.588,55.053,5.912A89.381,89.381,0,0,1,1287.55,418.071Z" transform="translate(-1017.57 -301.269)" fill="#fff"/>
    <path id="Path_6" data-name="Path 6" d="M1242.825,482.108s-2.02-2.5-3.867,7.357c-5.312,28.377-25.084,76.664-28.319,94.6-2.233,12.4,1.6,52.245-3.432,63.141s-8.7,32.687-20.691,39.125-45.315,7.833-45.315,7.833a110.762,110.762,0,0,0,12.086.69c7.973.033,38.2,3.366,42.992-11.249,4.541-13.835,12.094-79.431,16.988-99.876.271-1.149.509-2.159.7-3.03,3.153-14.336,24.058-59.389,26.39-87.248C1241.355,481.459,1242.825,482.108,1242.825,482.108Z" transform="translate(-1074.356 -332.652)" fill="#fff"/>
    <path id="Path_7" data-name="Path 7" d="M1108.466,631.766s-13.006-30.832-23.154-44.314-17.571-22.112-17.571-22.112" transform="translate(-879.68 -347.595)" fill="#fff"/>
    <path id="Path_8" data-name="Path 8" d="M844.45,699.01s91.567,22.448,114.82,17.308" transform="translate(-547.145 -371.511)" fill="#fff"/>
    <path id="Path_9" data-name="Path 9" d="M1269.665,408.373s-27.022-16.167-50.414-31.866a9.264,9.264,0,0,1-1.847-1.642c-3.186-3.728-4.056-6.536-7.423-9.525" transform="translate(-1157.669 -311.811)" fill="#fff"/>
    <path id="Path_10" data-name="Path 10" d="M1134.638,476.9s-24.394,4.237-69.119-2.882a14.184,14.184,0,0,1-4.836-1.675c-8.055-4.631,14.459-2.332,35.9.813C1115.539,475.927,1134.638,476.9,1134.638,476.9Z" transform="translate(-898.684 -330.486)" fill="#fff"/>
    <path id="Path_11" data-name="Path 11" d="M1331.42,339.777l-20.535-3.071s-1.305-5.583,5.781-4.2" transform="translate(-1302.198 -305.897)" fill="#fff"/>
    <path id="Path_12" data-name="Path 12" d="M1111.268,361.91c3.531,5.3,1.174,12.957-2.356,14.131S1111.268,361.91,1111.268,361.91Z" transform="translate(-917.107 -311.197)" fill="#fff"/>
  </g>
</svg>
